<?xml version="1.0" encoding="UTF-8" standalone="no"?>
<svg width="150px" height="35px" viewBox="0 0 150 35" version="1.1" xmlns="http://www.w3.org/2000/svg" xmlns:xlink="http://www.w3.org/1999/xlink">
    <!-- Generator: Sketch 3.8.3 (29802) - http://www.bohemiancoding.com/sketch -->
    <title>pendo-logo-150</title>
    <desc>Created with Sketch.</desc>
    <defs>
        <polygon id="path-1" points="20.4322904 20.518592 20.4322904 0.106201502 0.0201251564 0.106201502 0.0201251564 20.518592 20.4322904 20.518592"></polygon>
        <polygon id="path-3" points="3.75469337e-05 30.9762203 30.8118023 30.9762203 30.8118023 0.164342929 3.75469337e-05 0.164342929 3.75469337e-05 30.9762203"></polygon>
    </defs>
    <g id="Page-1" stroke="none" stroke-width="1" fill="none" fill-rule="evenodd">
        <g id="pendo-logo-150">
            <path d="M55.5525657,17.0969024 C55.5525657,20.9156133 52.4459324,24.0222466 48.6274093,24.0222466 C44.8088861,24.0222466 41.7020651,20.9156133 41.7020651,17.0969024 C41.7020651,13.2783792 44.8088861,10.1717459 48.6274093,10.1717459 C52.4459324,10.1717459 55.5525657,13.2783792 55.5525657,17.0969024 M48.6274093,6.89070713 C46.0376095,6.89070713 43.5953692,7.85209637 41.7020651,9.60722778 L41.7020651,7.05497497 L41.7020651,6.8672403 L41.5143304,6.8672403 L38.6089487,6.8672403 L38.421214,6.8672403 L38.421214,7.05497497 L38.421214,34.1195557 L38.421214,34.3072904 L38.6089487,34.3072904 L41.5143304,34.3072904 L41.7020651,34.3072904 L41.7020651,34.1195557 L41.7020651,24.586577 C43.5953692,26.3417084 46.0376095,27.3030976 48.6274093,27.3030976 C54.2551314,27.3030976 58.8334168,22.7246245 58.8334168,17.0969024 C58.8334168,11.4691802 54.2551314,6.89070713 48.6274093,6.89070713" id="Fill-1" fill="#292B34"></path>
            <path d="M64.8323842,15.43301 C65.5821965,12.3569775 68.3753129,10.1482791 71.5613579,10.1482791 C74.7059136,10.1482791 77.3402065,12.3098561 78.0421464,15.43301 L64.8323842,15.43301 Z M71.5613579,6.8672403 C65.9336358,6.8672403 61.3553504,11.4457134 61.3553504,17.0734355 C61.3553504,22.7011577 65.9336358,27.2796308 71.5613579,27.2796308 C74.7130476,27.2796308 77.6060388,26.0997184 79.4984043,24.0423342 L80.4819462,22.9731852 L80.6090426,22.8350125 L80.4708698,22.7079161 L78.332572,20.74102 L78.1943992,20.6139237 L78.0673029,20.7520964 L77.083761,21.821433 C75.8295056,23.1847622 73.7649875,23.9987797 71.5613579,23.9987797 C68.3755006,23.9987797 65.5821965,21.7898936 64.8323842,18.7138611 L81.3156758,18.7138611 L81.5034105,18.7138611 L81.5034105,18.5261264 L81.5034105,17.0734355 C81.5034105,11.3503442 77.1363267,6.8672403 71.5613579,6.8672403 L71.5613579,6.8672403 Z" id="Fill-3" fill="#292B34"></path>
            <path d="M93.9132353,6.86731539 C91.5710576,6.86731539 89.3400188,7.75285982 87.583761,9.37019399 L87.583761,7.05505006 L87.583761,6.86731539 L87.3960263,6.86731539 L84.4906446,6.86731539 L84.3029099,6.86731539 L84.3029099,7.05505006 L84.3029099,16.9413454 L84.3029099,18.3940363 L84.3029099,27.2522966 L84.3029099,27.4400313 L84.4906446,27.4400313 L87.3960263,27.4400313 L87.583761,27.4400313 L87.583761,27.2522966 L87.583761,18.3940363 L87.583761,16.9413454 C87.583761,13.1956633 90.4230601,10.1481665 93.9132353,10.1481665 C97.4035982,10.1481665 100.243085,13.1956633 100.243085,16.9413454 L100.243085,27.2522966 L100.243085,27.4400313 L100.43082,27.4400313 L103.336202,27.4400313 L103.523936,27.4400313 L103.523936,27.2522966 L103.523936,16.9413454 C103.523936,11.3864643 99.2126095,6.86731539 93.9132353,6.86731539" id="Fill-5" fill="#292B34"></path>
            <path d="M123.433085,17.2105194 C123.433085,21.0290426 120.326452,24.1356758 116.507929,24.1356758 C112.689218,24.1356758 109.582584,21.0290426 109.582584,17.2105194 C109.582584,13.3918085 112.689218,10.2851752 116.507929,10.2851752 C120.326452,10.2851752 123.433085,13.3918085 123.433085,17.2105194 L123.433085,17.2105194 Z M123.62082,0.000131414268 L123.433085,0.000131414268 L123.433085,0.187866083 L123.433085,9.72084481 C121.539781,7.96552566 119.097728,7.00432416 116.507929,7.00432416 C110.880207,7.00432416 106.301733,11.5827972 106.301733,17.2105194 C106.301733,22.8382416 110.880207,27.4167146 116.507929,27.4167146 C119.097728,27.4167146 121.539781,26.4553254 123.433085,24.700194 L123.433085,27.2524468 L123.433085,27.4401815 L123.62082,27.4401815 L126.526202,27.4401815 L126.713936,27.4401815 L126.713936,27.2524468 L126.713936,0.187866083 L126.713936,0.000131414268 L126.526202,0.000131414268 L123.62082,0.000131414268 Z" id="Fill-7" fill="#292B34"></path>
            <g id="Group-11" transform="translate(129.536921, 6.898123)">
                <mask id="mask-2" fill="white">
                    <use xlink:href="#path-1"></use>
                </mask>
                <g id="Clip-10"></g>
                <path d="M17.1514768,10.3123967 C17.1514768,14.1309199 14.0448436,17.2375532 10.2261327,17.2375532 C6.40760951,17.2375532 3.30097622,14.1309199 3.30097622,10.3123967 C3.30097622,6.49368586 6.40760951,3.38705257 10.2261327,3.38705257 C14.0448436,3.38705257 17.1514768,6.49368586 17.1514768,10.3123967 M10.2261327,0.106201502 C4.59859825,0.106201502 0.0201251564,4.68467459 0.0201251564,10.3123967 C0.0201251564,15.9401189 4.59859825,20.518592 10.2261327,20.518592 C15.8538548,20.518592 20.4323279,15.9401189 20.4323279,10.3123967 C20.4323279,4.68467459 15.8538548,0.106201502 10.2261327,0.106201502" id="Fill-9" fill="#292B34" mask="url(#mask-2)"></path>
            </g>
            <g id="Group-14" transform="translate(0.000000, 3.331164)">
                <mask id="mask-4" fill="white">
                    <use xlink:href="#path-3"></use>
                </mask>
                <g id="Clip-13"></g>
                <polygon id="Fill-12" fill="#EA2259" mask="url(#mask-4)" points="15.4059199 0.164342929 3.75469337e-05 15.5702253 15.4059199 15.5702253 15.4059199 30.9762954 30.8118023 15.5702253 30.8118023 0.164342929"></polygon>
            </g>
        </g>
    </g>
</svg>